<svg width="100" height="100" viewBox="0 0 100 100" fill="none" xmlns="http://www.w3.org/2000/svg">
<circle cx="50" cy="50" r="50" fill="#F3F5F8"/>
<path d="M26.95 59.1L24.55 65.2C24.2167 66.1333 23.9167 67.1 23.65 68.1C23.3833 69.1 23.1 69.9667 22.8 70.7C22.5 71.4667 22.0333 72.0667 21.4 72.5C20.8 72.9333 20.1167 73.25 19.35 73.45C18.5833 73.6833 17.7833 73.7833 16.95 73.75C16.15 73.7167 15.4333 73.5667 14.8 73.3C13.3667 72.6333 12.8667 71.5333 13.3 70C14.8333 63.2667 16.2667 57.8667 17.6 53.8C18.9667 49.7333 20.0833 46.5333 20.95 44.2C21.85 41.8667 22.7833 39.4 23.75 36.8C23.85 35.8333 24.25 34.9667 24.95 34.2C25.65 33.4333 26.4667 32.8 27.4 32.3C28.3667 31.8 29.3667 31.45 30.4 31.25C31.4333 31.0167 32.35 30.9833 33.15 31.15C33.95 31.3167 34.5333 31.6833 34.9 32.25C35.3 32.8167 35.3333 33.6333 35 34.7C33.8 37.7667 32.95 39.9333 32.45 41.2C31.95 42.4667 31.5 43.6 31.1 44.6L29.7 47.9C30.4 47.9333 31.2833 47.8333 32.35 47.6C34.2833 47.1667 35.6833 47.0167 36.55 47.15C36.55 46.9833 36.6333 46.7 36.8 46.3C37.7333 42.2333 38.7833 38.5 39.95 35.1C40.7833 32.3 42.9333 30.8333 46.4 30.7C47.7667 30.7 48.8 31.0333 49.5 31.7C50.2667 32.4 50.3667 33.35 49.8 34.55C46.7333 43.15 44.5667 49.9333 43.3 54.9C41.8667 60.6333 40.9167 64.5 40.45 66.5C40.0167 68.5 39.6333 69.6833 39.3 70.05C38.9667 70.4167 38.6167 70.6667 38.25 70.8C37.9167 70.9667 37.5833 71.1167 37.25 71.25C36.9167 71.3833 36.65 71.7167 36.45 72.25H36.3C36.0333 72.85 35.45 73.3167 34.55 73.65C33.65 73.9833 32.7333 74.1 31.8 74C30.9 73.9333 30.1333 73.6 29.5 73C28.9 72.4333 28.75 71.55 29.05 70.35C29.3833 68.45 29.9333 66.4167 30.7 64.25C31.4667 62.05 32.0667 60.3333 32.5 59.1C32.9667 57.8667 33.35 56.7167 33.65 55.65C33.3833 55.7833 33.1167 55.8833 32.85 55.95C32.6167 56.0167 32.3167 56.15 31.95 56.35C31.5833 56.5167 31.2 56.6667 30.8 56.8C30.4333 56.9333 30.0667 57.0667 29.7 57.2C28.7667 57.5667 28 57.9333 27.4 58.3L26.95 59.1ZM32.6 55.75C32.6333 55.75 32.8 55.7 33.1 55.6C32.9 55.6667 32.7333 55.7167 32.6 55.75ZM54.9945 71.9C54.5945 72.7 53.9945 73.4 53.1945 74C52.4279 74.6333 51.6445 75.0667 50.8445 75.3C50.0779 75.5667 49.5612 75.7 49.2945 75.7C49.0279 75.7 48.3445 75.6167 47.2445 75.45H47.1945C47.1612 75.45 47.1112 75.4167 47.0445 75.35C45.3112 74.55 44.4445 73.4667 44.4445 72.1C44.4445 70.9 45.0612 69.7 46.2945 68.5C47.9612 66.9 49.7612 66.1667 51.6945 66.3C51.9279 66.3333 52.4779 66.4667 53.3445 66.7C53.4445 66.8 53.5112 66.85 53.5445 66.85C55.4445 68.3167 55.9279 70 54.9945 71.9ZM64.4621 72.9C62.7621 72.9667 61.1954 72.75 59.7621 72.25C58.3621 71.7833 57.2121 71.1333 56.3121 70.3C55.4454 69.4667 54.8954 68.5 54.6621 67.4C54.4288 66.2667 54.6288 65.1167 55.2621 63.95C56.1288 62.55 57.8621 62.1333 60.4621 62.7C62.4288 63.1 63.7788 63.3167 64.5121 63.35C65.2788 63.3833 65.9288 63.2833 66.4621 63.05C68.8954 62.25 70.2621 61.3833 70.5621 60.45C70.7621 59.75 70.3288 58.9333 69.2621 58C68.8288 57.6 68.3454 57.2 67.8121 56.8C67.2788 56.4 66.8288 56 66.4621 55.6C64.7954 54.3667 63.4788 52.95 62.5121 51.35C61.5788 49.7167 61.1954 47.95 61.3621 46.05C61.5288 44.15 61.8454 42.5833 62.3121 41.35C62.7788 40.0833 63.3621 38.9667 64.0621 38C65.2954 36.3 66.8954 34.9167 68.8621 33.85C71.1288 32.6833 72.9454 31.9333 74.3121 31.6C77.0121 31 79.7454 30.95 82.5121 31.45C83.4454 31.6167 84.2454 31.9333 84.9121 32.4C85.5788 32.8667 86.2454 33.35 86.9121 33.85C88.0788 35.0167 88.3621 36.2 87.7621 37.4C87.5288 37.9333 87.1621 38.3667 86.6621 38.7C86.1621 39.0333 85.6288 39.2167 85.0621 39.25C85.1288 40.15 84.9621 40.8167 84.5621 41.25C83.7954 42.0167 82.4621 42.5167 80.5621 42.75C77.8288 42.55 75.9788 42.7 75.0121 43.2C73.8788 43.8 73.4621 45.1 73.7621 47.1C73.8288 47.5333 74.0954 47.9833 74.5621 48.45C75.0621 48.9167 75.6288 49.4167 76.2621 49.95C76.9288 50.4833 77.6121 51.0833 78.3121 51.75C79.0454 52.4167 79.6788 53.1833 80.2121 54.05C82.0788 57.1167 81.9288 60.7 79.7621 64.8C78.1621 67.8667 75.4288 70.1667 71.5621 71.7C69.5621 72.5 67.1954 72.9 64.4621 72.9Z" fill="#1C244B"/>
</svg>
